FILE "NBA Action (Europe) (Track 01).bin" BINARY
  TRACK 01 MODE1/2352
    INDEX 01 00:00:00
FILE "NBA Action (Europe) (Track 02).bin" BINARY
  TRACK 02 AUDIO
    INDEX 00 00:00:00
    INDEX 01 00:02:00
    INDEX 02 00:03:52
    INDEX 03 00:04:61
    INDEX 04 00:06:17
    INDEX 05 00:07:38
    INDEX 06 00:09:01
    INDEX 07 00:10:14
    INDEX 08 00:11:31
    INDEX 09 00:12:39
    INDEX 10 00:13:56
    INDEX 11 00:14:66
    INDEX 12 00:16:04
    INDEX 13 00:17:07
    INDEX 14 00:18:29
    INDEX 15 00:19:38
    INDEX 16 00:21:03
    INDEX 17 00:22:35
    INDEX 18 00:23:60
    INDEX 19 00:25:00
    INDEX 20 00:26:26
    INDEX 21 00:27:33
    INDEX 22 00:28:32
    INDEX 23 00:29:35
    INDEX 24 00:30:50
    INDEX 25 00:31:44
    INDEX 26 00:32:44
    INDEX 27 00:33:59
    INDEX 28 00:34:64
    INDEX 29 00:36:03
    INDEX 30 00:37:05
    INDEX 31 00:38:16
    INDEX 32 00:39:05
    INDEX 33 00:40:33
    INDEX 34 00:41:36
    INDEX 35 00:42:48
    INDEX 36 00:43:62
    INDEX 37 00:45:17
    INDEX 38 00:46:38
    INDEX 39 00:47:32
    INDEX 40 00:48:53
    INDEX 41 00:49:56
    INDEX 42 00:50:55
    INDEX 43 00:51:55
    INDEX 44 00:52:67
    INDEX 45 00:54:08
    INDEX 46 00:55:17
    INDEX 47 00:56:17
    INDEX 48 00:57:25
    INDEX 49 00:58:39
    INDEX 50 00:59:39
    INDEX 51 01:00:67
    INDEX 52 01:02:02
    INDEX 53 01:03:23
    INDEX 54 01:04:60
    INDEX 55 01:05:72
    INDEX 56 01:07:13
    INDEX 57 01:08:21
    INDEX 58 01:09:37
    INDEX 59 01:10:54
    INDEX 60 01:12:20
    INDEX 61 01:13:42
    INDEX 62 01:14:51
    INDEX 63 01:15:56
    INDEX 64 01:16:43
    INDEX 65 01:17:70
    INDEX 66 01:19:02
    INDEX 67 01:19:73
    INDEX 68 01:21:07
    INDEX 69 01:22:14
    INDEX 70 01:23:30
    INDEX 71 01:24:50
    INDEX 72 01:25:46
    INDEX 73 01:26:59
    INDEX 74 01:27:70
    INDEX 75 01:28:74
    INDEX 76 01:30:15
    INDEX 77 01:31:10
    INDEX 78 01:32:10
    INDEX 79 01:33:56
    INDEX 80 01:35:09
    INDEX 81 01:36:15
    INDEX 82 01:37:23
    INDEX 83 01:38:52
    INDEX 84 01:39:53
    INDEX 85 01:40:64
    INDEX 86 01:42:02
    INDEX 87 01:42:74
    INDEX 88 01:44:03
    INDEX 89 01:45:13
    INDEX 90 01:46:24
    INDEX 91 01:47:34
    INDEX 92 01:48:42
    INDEX 93 01:49:54
    INDEX 94 01:51:15
    INDEX 95 01:52:29
    INDEX 96 01:53:53
    INDEX 97 01:54:55
    INDEX 98 01:55:51
    INDEX 99 01:56:68
FILE "NBA Action (Europe) (Track 03).bin" BINARY
  TRACK 03 AUDIO
    INDEX 00 00:00:00
    INDEX 01 00:02:00
    INDEX 02 00:03:00
    INDEX 03 00:04:35
    INDEX 04 00:05:50
    INDEX 05 00:06:61
    INDEX 06 00:07:65
    INDEX 07 00:08:72
    INDEX 08 00:10:23
    INDEX 09 00:11:41
    INDEX 10 00:12:46
    INDEX 11 00:13:60
    INDEX 12 00:14:63
    INDEX 13 00:16:00
    INDEX 14 00:17:35
    INDEX 15 00:18:52
    INDEX 16 00:20:00
    INDEX 17 00:22:05
    INDEX 18 00:23:12
    INDEX 19 00:24:23
    INDEX 20 00:25:19
    INDEX 21 00:26:37
    INDEX 22 00:27:45
    INDEX 23 00:28:70
    INDEX 24 00:30:23
    INDEX 25 00:31:22
    INDEX 26 00:32:29
    INDEX 27 00:33:40
    INDEX 28 00:34:46
    INDEX 29 00:35:62
    INDEX 30 00:36:63
    INDEX 31 00:38:00
    INDEX 32 00:39:00
    INDEX 33 00:40:02
    INDEX 34 00:41:15
    INDEX 35 00:42:15
    INDEX 36 00:43:26
    INDEX 37 00:44:27
    INDEX 38 00:45:12
    INDEX 39 00:46:01
    INDEX 40 00:46:69
    INDEX 41 00:47:70
    INDEX 42 00:49:11
    INDEX 43 00:50:21
    INDEX 44 00:51:33
    INDEX 45 00:52:37
    INDEX 46 00:53:41
    INDEX 47 00:55:17
    INDEX 48 00:56:25
    INDEX 49 00:57:35
    INDEX 50 00:58:64
    INDEX 51 01:00:06
    INDEX 52 01:01:12
    INDEX 53 01:02:16
    INDEX 54 01:03:29
    INDEX 55 01:04:65
    INDEX 56 01:06:12
    INDEX 57 01:07:37
    INDEX 58 01:08:40
    INDEX 59 01:09:49
    INDEX 60 01:10:62
    INDEX 61 01:11:69
    INDEX 62 01:13:05
    INDEX 63 01:14:09
    INDEX 64 01:15:17
    INDEX 65 01:16:24
    INDEX 66 01:17:22
    INDEX 67 01:18:22
    INDEX 68 01:19:34
    INDEX 69 01:20:49
    INDEX 70 01:21:56
    INDEX 71 01:22:53
    INDEX 72 01:23:58
    INDEX 73 01:25:01
    INDEX 74 01:26:12
    INDEX 75 01:27:21
    INDEX 76 01:28:40
    INDEX 77 01:29:58
    INDEX 78 01:31:00
    INDEX 79 01:32:21
    INDEX 80 01:33:28
    INDEX 81 01:34:46
    INDEX 82 01:35:32
    INDEX 83 01:36:33
    INDEX 84 01:37:43
    INDEX 85 01:38:59
    INDEX 86 01:40:12
    INDEX 87 01:41:22
    INDEX 88 01:42:21
    INDEX 89 01:43:39
    INDEX 90 01:44:44
    INDEX 91 01:45:57
    INDEX 92 01:46:67
    INDEX 93 01:48:06
    INDEX 94 01:49:14
    INDEX 95 01:50:42
    INDEX 96 01:51:51
    INDEX 97 01:53:02
    INDEX 98 01:54:15
    INDEX 99 01:55:23
FILE "NBA Action (Europe) (Track 04).bin" BINARY
  TRACK 04 AUDIO
    INDEX 00 00:00:00
    INDEX 01 00:02:00
    INDEX 02 00:03:19
    INDEX 03 00:04:40
    INDEX 04 00:05:53
    INDEX 05 00:06:73
    INDEX 06 00:08:01
    INDEX 07 00:09:09
    INDEX 08 00:10:20
    INDEX 09 00:11:32
    INDEX 10 00:12:40
    INDEX 11 00:13:36
    INDEX 12 00:14:46
    INDEX 13 00:15:44
    INDEX 14 00:17:29
    INDEX 15 00:18:29
    INDEX 16 00:19:57
    INDEX 17 00:21:16
    INDEX 18 00:22:25
    INDEX 19 00:23:41
    INDEX 20 00:24:64
    INDEX 21 00:26:12
    INDEX 22 00:27:31
    INDEX 23 00:28:52
    INDEX 24 00:30:10
    INDEX 25 00:31:39
    INDEX 26 00:32:60
    INDEX 27 00:33:72
    INDEX 28 00:35:03
    INDEX 29 00:36:09
    INDEX 30 00:37:16
    INDEX 31 00:38:23
    INDEX 32 00:39:24
    INDEX 33 00:40:25
    INDEX 34 00:41:39
    INDEX 35 00:42:59
    INDEX 36 00:43:60
    INDEX 37 00:44:48
    INDEX 38 00:45:64
    INDEX 39 00:46:66
    INDEX 40 00:48:19
    INDEX 41 00:49:30
    INDEX 42 00:50:33
    INDEX 43 00:51:58
    INDEX 44 00:52:53
    INDEX 45 00:53:50
    INDEX 46 00:54:56
    INDEX 47 00:56:11
    INDEX 48 00:57:14
    INDEX 49 00:58:25
    INDEX 50 00:59:63
    INDEX 51 01:00:68
    INDEX 52 01:01:73
    INDEX 53 01:02:73
    INDEX 54 01:04:02
    INDEX 55 01:05:12
    INDEX 56 01:06:57
    INDEX 57 01:07:72
    INDEX 58 01:09:18
    INDEX 59 01:10:22
    INDEX 60 01:11:42
    INDEX 61 01:12:47
    INDEX 62 01:13:62
    INDEX 63 01:15:05
    INDEX 64 01:15:74
    INDEX 65 01:17:08
    INDEX 66 01:18:09
    INDEX 67 01:19:31
    INDEX 68 01:20:31
    INDEX 69 01:21:25
    INDEX 70 01:22:18
    INDEX 71 01:23:31
    INDEX 72 01:24:46
    INDEX 73 01:25:74
    INDEX 74 01:27:05
    INDEX 75 01:27:71
    INDEX 76 01:29:04
    INDEX 77 01:30:18
    INDEX 78 01:31:18
    INDEX 79 01:32:20
    INDEX 80 01:33:41
    INDEX 81 01:34:46
    INDEX 82 01:35:59
    INDEX 83 01:37:20
    INDEX 84 01:38:58
    INDEX 85 01:40:51
    INDEX 86 01:41:69
    INDEX 87 01:43:05
    INDEX 88 01:44:24
    INDEX 89 01:45:36
    INDEX 90 01:46:50
    INDEX 91 01:48:30
    INDEX 92 01:49:27
    INDEX 93 01:50:34
    INDEX 94 01:51:50
    INDEX 95 01:52:74
    INDEX 96 01:54:10
    INDEX 97 01:55:10
    INDEX 98 01:56:16
    INDEX 99 01:57:42
FILE "NBA Action (Europe) (Track 05).bin" BINARY
  TRACK 05 AUDIO
    INDEX 00 00:00:00
    INDEX 01 00:02:00
    INDEX 02 00:03:31
    INDEX 03 00:04:55
    INDEX 04 00:06:03
    INDEX 05 00:07:26
    INDEX 06 00:08:20
    INDEX 07 00:09:21
    INDEX 08 00:10:54
    INDEX 09 00:12:10
    INDEX 10 00:13:26
    INDEX 11 00:14:43
    INDEX 12 00:15:52
    INDEX 13 00:16:72
    INDEX 14 00:18:08
    INDEX 15 00:19:54
    INDEX 16 00:20:57
    INDEX 17 00:22:14
    INDEX 18 00:23:28
    INDEX 19 00:24:46
    INDEX 20 00:25:58
    INDEX 21 00:26:54
    INDEX 22 00:27:48
    INDEX 23 00:28:44
    INDEX 24 00:29:45
    INDEX 25 00:30:50
    INDEX 26 00:31:63
    INDEX 27 00:33:19
    INDEX 28 00:34:29
    INDEX 29 00:35:34
    INDEX 30 00:36:35
    INDEX 31 00:37:27
    INDEX 32 00:38:16
    INDEX 33 00:39:02
    INDEX 34 00:40:20
    INDEX 35 00:41:23
    INDEX 36 00:42:17
    INDEX 37 00:43:23
    INDEX 38 00:44:38
    INDEX 39 00:45:60
    INDEX 40 00:47:05
    INDEX 41 00:48:46
    INDEX 42 00:50:04
    INDEX 43 00:51:22
    INDEX 44 00:52:27
    INDEX 45 00:53:57
    INDEX 46 00:55:06
    INDEX 47 00:56:20
    INDEX 48 00:57:35
    INDEX 49 00:58:33
    INDEX 50 00:59:24
    INDEX 51 01:00:36
    INDEX 52 01:01:41
    INDEX 53 01:02:39
    INDEX 54 01:03:36
    INDEX 55 01:04:53
    INDEX 56 01:06:06
    INDEX 57 01:07:13
    INDEX 58 01:08:18
    INDEX 59 01:09:02
    INDEX 60 01:10:06
    INDEX 61 01:11:00
    INDEX 62 01:12:14
    INDEX 63 01:13:51
    INDEX 64 01:15:28
    INDEX 65 01:16:34
    INDEX 66 01:17:22
    INDEX 67 01:18:42
    INDEX 68 01:19:53
    INDEX 69 01:20:58
    INDEX 70 01:21:71
    INDEX 71 01:23:31
    INDEX 72 01:24:34
    INDEX 73 01:25:37
    INDEX 74 01:26:47
    INDEX 75 01:27:49
    INDEX 76 01:28:67
    INDEX 77 01:30:04
    INDEX 78 01:31:04
    INDEX 79 01:32:11
    INDEX 80 01:33:23
    INDEX 81 01:34:35
    INDEX 82 01:35:45
    INDEX 83 01:36:63
    INDEX 84 01:37:67
    INDEX 85 01:38:72
    INDEX 86 01:40:66
    INDEX 87 01:42:23
    INDEX 88 01:43:46
    INDEX 89 01:44:61
    INDEX 90 01:46:07
    INDEX 91 01:47:17
    INDEX 92 01:48:31
    INDEX 93 01:49:49
    INDEX 94 01:50:45
    INDEX 95 01:51:55
    INDEX 96 01:53:20
    INDEX 97 01:54:10
    INDEX 98 01:55:02
    INDEX 99 01:56:20
FILE "NBA Action (Europe) (Track 06).bin" BINARY
  TRACK 06 AUDIO
    INDEX 00 00:00:00
    INDEX 01 00:02:00
    INDEX 02 00:03:09
    INDEX 03 00:04:21
    INDEX 04 00:05:32
    INDEX 05 00:06:43
    INDEX 06 00:07:21
    INDEX 07 00:07:69
    INDEX 08 00:08:57
    INDEX 09 00:09:47
    INDEX 10 00:10:14
    INDEX 11 00:10:65
    INDEX 12 00:11:47
    INDEX 13 00:12:25
    INDEX 14 00:13:02
    INDEX 15 00:13:60
    INDEX 16 00:14:34
    INDEX 17 00:15:19
    INDEX 18 00:16:00
    INDEX 19 00:16:64
    INDEX 20 00:17:60
    INDEX 21 00:18:37
    INDEX 22 00:19:25
    INDEX 23 00:19:66
    INDEX 24 00:20:33
    INDEX 25 00:20:74
    INDEX 26 00:21:44
    INDEX 27 00:22:39
    INDEX 28 00:23:08
    INDEX 29 00:23:52
    INDEX 30 00:24:20
    INDEX 31 00:24:60
    INDEX 32 00:25:40
    INDEX 33 00:26:00
    INDEX 34 00:26:67
    INDEX 35 00:27:22
    INDEX 36 00:28:07
    INDEX 37 00:28:43
    INDEX 38 00:29:14
    INDEX 39 00:29:62
    INDEX 40 00:30:30
    INDEX 41 00:31:04
    INDEX 42 00:31:43
    INDEX 43 00:32:34
    INDEX 44 00:32:74
    INDEX 45 00:33:53
    INDEX 46 00:34:28
    INDEX 47 00:35:02
    INDEX 48 00:35:55
    INDEX 49 00:36:21
    INDEX 50 00:36:63
    INDEX 51 00:37:33
    INDEX 52 00:38:08
    INDEX 53 00:38:52
    INDEX 54 00:39:20
    INDEX 55 00:39:64
    INDEX 56 00:40:41
    INDEX 57 00:41:26
    INDEX 58 00:42:00
    INDEX 59 00:42:43
    INDEX 60 00:43:26
    INDEX 61 00:44:10
    INDEX 62 00:44:74
    INDEX 63 00:45:70
    INDEX 64 00:47:04
    INDEX 65 00:47:52
    INDEX 66 00:48:16
    INDEX 67 00:48:65
    INDEX 68 00:49:43
    INDEX 69 00:50:27
    INDEX 70 00:51:05
    INDEX 71 00:51:53
    INDEX 72 00:52:25
    INDEX 73 00:53:12
    INDEX 74 00:53:62
    INDEX 75 00:54:22
    INDEX 76 00:54:69
    INDEX 77 00:55:41
    INDEX 78 00:56:13
    INDEX 79 00:56:69
    INDEX 80 00:57:39
    INDEX 81 00:58:09
    INDEX 82 00:59:00
    INDEX 83 00:59:59
    INDEX 84 01:00:35
    INDEX 85 01:01:06
    INDEX 86 01:01:51
    INDEX 87 01:02:24
    INDEX 88 01:02:70
    INDEX 89 01:03:44
    INDEX 90 01:04:18
    INDEX 91 01:04:67
    INDEX 92 01:05:44
    INDEX 93 01:06:22
    INDEX 94 01:07:10
    INDEX 95 01:07:57
    INDEX 96 01:08:39
    INDEX 97 01:09:16
    INDEX 98 01:09:65
    INDEX 99 01:10:45
FILE "NBA Action (Europe) (Track 07).bin" BINARY
  TRACK 07 AUDIO
    INDEX 00 00:00:00
    INDEX 01 00:02:00
    INDEX 02 00:02:46
    INDEX 03 00:03:40
    INDEX 04 00:04:11
    INDEX 05 00:04:55
    INDEX 06 00:05:44
    INDEX 07 00:06:16
    INDEX 08 00:06:66
    INDEX 09 00:07:49
    INDEX 10 00:08:30
    INDEX 11 00:09:16
    INDEX 12 00:09:72
    INDEX 13 00:10:50
    INDEX 14 00:11:13
    INDEX 15 00:11:49
    INDEX 16 00:12:16
    INDEX 17 00:12:62
    INDEX 18 00:13:37
    INDEX 19 00:14:09
    INDEX 20 00:15:12
    INDEX 21 00:15:51
    INDEX 22 00:16:30
    INDEX 23 00:17:03
    INDEX 24 00:17:55
    INDEX 25 00:18:27
    INDEX 26 00:19:14
    INDEX 27 00:20:32
    INDEX 28 00:21:10
    INDEX 29 00:21:69
    INDEX 30 00:22:41
    INDEX 31 00:23:09
    INDEX 32 00:23:54
    INDEX 33 00:24:27
    INDEX 34 00:24:71
    INDEX 35 00:25:35
    INDEX 36 00:25:69
    INDEX 37 00:26:44
    INDEX 38 00:27:19
    INDEX 39 00:27:72
    INDEX 40 00:28:38
    INDEX 41 00:28:74
    INDEX 42 00:29:36
    INDEX 43 00:29:67
    INDEX 44 00:30:24
    INDEX 45 00:30:72
    INDEX 46 00:32:01
    INDEX 47 00:32:58
    INDEX 48 00:33:31
    INDEX 49 00:34:08
    INDEX 50 00:34:66
    INDEX 51 00:35:47
    INDEX 52 00:36:29
    INDEX 53 00:37:16
    INDEX 54 00:38:03
    INDEX 55 00:38:54
    INDEX 56 00:39:27
    INDEX 57 00:40:00
    INDEX 58 00:40:44
    INDEX 59 00:41:18
    INDEX 60 00:42:06
    INDEX 61 00:42:61
    INDEX 62 00:43:40
    INDEX 63 00:44:13
    INDEX 64 00:44:62
    INDEX 65 00:45:32
    INDEX 66 00:46:10
    INDEX 67 00:46:57
    INDEX 68 00:47:27
    INDEX 69 00:47:67
    INDEX 70 00:48:39
    INDEX 71 00:49:14
    INDEX 72 00:49:61
    INDEX 73 00:50:29
    INDEX 74 00:50:68
    INDEX 75 00:51:41
    INDEX 76 00:52:19
    INDEX 77 00:52:68
    INDEX 78 00:53:42
    INDEX 79 00:54:21
    INDEX 80 00:54:72
    INDEX 81 00:55:51
    INDEX 82 00:56:38
    INDEX 83 00:57:30
    INDEX 84 00:58:17
    INDEX 85 00:58:57
    INDEX 86 00:59:14
    INDEX 87 00:59:59
    INDEX 88 01:00:32
    INDEX 89 01:01:13
    INDEX 90 01:01:54
    INDEX 91 01:02:27
    INDEX 92 01:03:00
    INDEX 93 01:03:49
    INDEX 94 01:04:13
    INDEX 95 01:04:69
    INDEX 96 01:05:50
    INDEX 97 01:06:28
    INDEX 98 01:07:00
    INDEX 99 01:07:51
FILE "NBA Action (Europe) (Track 08).bin" BINARY
  TRACK 08 AUDIO
    INDEX 00 00:00:00
    INDEX 01 00:02:00
    INDEX 02 00:02:56
    INDEX 03 00:03:36
    INDEX 04 00:04:20
    INDEX 05 00:04:64
    INDEX 06 00:05:54
    INDEX 07 00:06:32
    INDEX 08 00:07:16
    INDEX 09 00:07:58
    INDEX 10 00:08:49
    INDEX 11 00:09:24
    INDEX 12 00:10:06
    INDEX 13 00:10:68
    INDEX 14 00:11:50
    INDEX 15 00:12:37
    INDEX 16 00:13:04
    INDEX 17 00:14:05
    INDEX 18 00:14:54
    INDEX 19 00:15:31
    INDEX 20 00:16:16
    INDEX 21 00:16:67
    INDEX 22 00:17:62
    INDEX 23 00:18:50
    INDEX 24 00:19:38
    INDEX 25 00:20:33
    INDEX 26 00:21:28
    INDEX 27 00:22:23
    INDEX 28 00:23:02
    INDEX 29 00:24:02
    INDEX 30 00:24:58
    INDEX 31 00:25:39
    INDEX 32 00:26:10
    INDEX 33 00:26:62
    INDEX 34 00:27:30
    INDEX 35 00:27:69
    INDEX 36 00:28:39
    INDEX 37 00:29:23
    INDEX 38 00:30:11
    INDEX 39 00:30:57
    INDEX 40 00:31:34
    INDEX 41 00:32:07
    INDEX 42 00:32:58
    INDEX 43 00:33:56
    INDEX 44 00:34:42
    INDEX 45 00:35:14
    INDEX 46 00:35:60
    INDEX 47 00:36:40
    INDEX 48 00:37:08
    INDEX 49 00:37:50
    INDEX 50 00:38:34
    INDEX 51 00:39:12
    INDEX 52 00:39:66
    INDEX 53 00:40:58
    INDEX 54 00:41:46
    INDEX 55 00:42:09
    INDEX 56 00:42:56
    INDEX 57 00:43:33
    INDEX 58 00:44:02
    INDEX 59 00:45:01
    INDEX 60 00:45:67
    INDEX 61 00:46:47
    INDEX 62 00:47:22
    INDEX 63 00:48:05
    INDEX 64 00:48:37
    INDEX 65 00:49:06
    INDEX 66 00:49:50
    INDEX 67 00:50:15
    INDEX 68 00:50:57
    INDEX 69 00:51:34
    INDEX 70 00:52:15
    INDEX 71 00:52:52
    INDEX 72 00:53:22
    INDEX 73 00:53:63
    INDEX 74 00:54:35
    INDEX 75 00:55:17
    INDEX 76 00:56:11
    INDEX 77 00:56:55
    INDEX 78 00:57:28
    INDEX 79 00:57:64
    INDEX 80 00:58:49
    INDEX 81 00:59:11
    INDEX 82 00:59:60
    INDEX 83 01:00:35
    INDEX 84 01:01:05
    INDEX 85 01:01:69
    INDEX 86 01:02:56
    INDEX 87 01:03:49
    INDEX 88 01:04:33
    INDEX 89 01:05:20
    INDEX 90 01:05:73
    INDEX 91 01:06:45
    INDEX 92 01:07:18
    INDEX 93 01:07:60
    INDEX 94 01:08:50
    INDEX 95 01:09:23
    INDEX 96 01:10:07
    INDEX 97 01:10:56
    INDEX 98 01:11:29
    INDEX 99 01:12:03
FILE "NBA Action (Europe) (Track 09).bin" BINARY
  TRACK 09 AUDIO
    INDEX 00 00:00:00
    INDEX 01 00:02:00
    INDEX 02 00:02:58
    INDEX 03 00:03:40
    INDEX 04 00:04:28
    INDEX 05 00:05:08
    INDEX 06 00:05:70
    INDEX 07 00:06:49
    INDEX 08 00:07:28
    INDEX 09 00:07:73
    INDEX 10 00:08:53
    INDEX 11 00:09:34
    INDEX 12 00:10:19
    INDEX 13 00:10:70
    INDEX 14 00:11:50
    INDEX 15 00:12:28
    INDEX 16 00:13:10
    INDEX 17 00:13:61
    INDEX 18 00:14:41
    INDEX 19 00:15:07
    INDEX 20 00:16:07
    INDEX 21 00:16:62
    INDEX 22 00:17:48
    INDEX 23 00:18:33
    INDEX 24 00:19:00
    INDEX 25 00:19:44
    INDEX 26 00:20:16
    INDEX 27 00:20:66
    INDEX 28 00:21:46
    INDEX 29 00:22:27
    INDEX 30 00:23:17
    INDEX 31 00:24:06
    INDEX 32 00:24:52
    INDEX 33 00:25:15
    INDEX 34 00:25:63
    INDEX 35 00:26:33
    INDEX 36 00:26:71
    INDEX 37 00:27:38
    INDEX 38 00:28:08
    INDEX 39 00:28:52
    INDEX 40 00:29:32
    INDEX 41 00:30:15
    INDEX 42 00:30:74
    INDEX 43 00:31:61
    INDEX 44 00:32:52
    INDEX 45 00:33:57
    INDEX 46 00:34:39
    INDEX 47 00:35:08
    INDEX 48 00:35:67
    INDEX 49 00:36:51
    INDEX 50 00:37:29
    INDEX 51 00:38:12
    INDEX 52 00:38:65
    INDEX 53 00:39:37
    INDEX 54 00:40:10
    INDEX 55 00:40:56
    INDEX 56 00:41:32
    INDEX 57 00:41:71
    INDEX 58 00:42:30
    INDEX 59 00:43:12
    INDEX 60 00:43:63
    INDEX 61 00:44:33
    INDEX 62 00:44:72
    INDEX 63 00:45:36
    INDEX 64 00:46:02
    INDEX 65 00:46:47
    INDEX 66 00:47:31
    INDEX 67 00:48:25
    INDEX 68 00:49:03
    INDEX 69 00:49:44
    INDEX 70 00:50:24
    INDEX 71 00:51:10
    INDEX 72 00:51:62
    INDEX 73 00:52:35
    INDEX 74 00:53:19
    INDEX 75 00:53:57
    INDEX 76 00:54:31
    INDEX 77 00:55:08
    INDEX 78 00:55:66
    INDEX 79 00:56:52
    INDEX 80 00:57:30
    INDEX 81 00:57:71
    INDEX 82 00:58:37
    INDEX 83 00:59:22
    INDEX 84 01:00:16
    INDEX 85 01:01:09
    INDEX 86 01:01:68
    INDEX 87 01:02:51
    INDEX 88 01:03:33
    INDEX 89 01:04:24
    INDEX 90 01:05:06
    INDEX 91 01:05:67
    INDEX 92 01:06:51
    INDEX 93 01:07:34
    INDEX 94 01:08:21
    INDEX 95 01:09:12
    INDEX 96 01:09:72
    INDEX 97 01:10:40
    INDEX 98 01:11:22
    INDEX 99 01:12:06
FILE "NBA Action (Europe) (Track 10).bin" BINARY
  TRACK 10 AUDIO
    INDEX 00 00:00:00
    INDEX 01 00:02:00
    INDEX 02 00:02:44
    INDEX 03 00:03:21
    INDEX 04 00:03:70
    INDEX 05 00:04:33
    INDEX 06 00:05:02
FILE "NBA Action (Europe) (Track 11).bin" BINARY
  TRACK 11 AUDIO
    INDEX 00 00:00:00
    INDEX 01 00:02:00
    INDEX 02 00:02:72
    INDEX 03 00:04:48
    INDEX 04 00:06:40
    INDEX 05 00:08:03
    INDEX 06 00:10:46
    INDEX 07 00:11:42
    INDEX 08 00:12:22
FILE "NBA Action (Europe) (Track 12).bin" BINARY
  TRACK 12 AUDIO
    INDEX 00 00:00:00
    INDEX 01 00:02:00
    INDEX 02 00:03:39
    INDEX 03 00:04:45
    INDEX 04 00:05:42
FILE "NBA Action (Europe) (Track 13).bin" BINARY
  TRACK 13 AUDIO
    INDEX 00 00:00:00
    INDEX 01 00:02:00
    INDEX 02 00:03:21
    INDEX 03 00:04:57
    INDEX 04 00:07:00
    INDEX 05 00:09:07
    INDEX 06 00:11:09
    INDEX 07 00:13:11
    INDEX 08 00:14:72
    INDEX 09 00:16:09
    INDEX 10 00:18:07
FILE "NBA Action (Europe) (Track 14).bin" BINARY
  TRACK 14 AUDIO
    INDEX 00 00:00:00
    INDEX 01 00:02:00
    INDEX 02 00:03:05
    INDEX 03 00:04:26
    INDEX 04 00:05:69
    INDEX 05 00:07:32
    INDEX 06 00:09:15
    INDEX 07 00:11:04
    INDEX 08 00:13:19
    INDEX 09 00:15:22
    INDEX 10 00:17:15
    INDEX 11 00:19:24
    INDEX 12 00:21:35
    INDEX 13 00:23:15
    INDEX 14 00:25:18
    INDEX 15 00:27:01
    INDEX 16 00:28:39
    INDEX 17 00:29:40
    INDEX 18 00:31:03
    INDEX 19 00:32:48
    INDEX 20 00:34:54
    INDEX 21 00:36:68
    INDEX 22 00:38:35
    INDEX 23 00:40:00
    INDEX 24 00:41:27
    INDEX 25 00:42:24
    INDEX 26 00:43:72
    INDEX 27 00:44:72
    INDEX 28 00:46:19
    INDEX 29 00:48:36
    INDEX 30 00:50:57
    INDEX 31 00:53:47
    INDEX 32 00:56:25
    INDEX 33 00:58:65
    INDEX 34 01:00:37
    INDEX 35 01:01:74
    INDEX 36 01:03:57
    INDEX 37 01:05:36
    INDEX 38 01:07:06
    INDEX 39 01:08:45
    INDEX 40 01:09:44
    INDEX 41 01:11:48
    INDEX 42 01:13:65
    INDEX 43 01:15:08
    INDEX 44 01:16:18
    INDEX 45 01:17:52
    INDEX 46 01:18:58
FILE "NBA Action (Europe) (Track 15).bin" BINARY
  TRACK 15 AUDIO
    INDEX 00 00:00:00
    INDEX 01 00:02:00
    INDEX 02 00:04:09
    INDEX 03 00:06:16
    INDEX 04 00:08:29
FILE "NBA Action (Europe) (Track 16).bin" BINARY
  TRACK 16 AUDIO
    INDEX 00 00:00:00
    INDEX 01 00:02:00
    INDEX 02 00:08:51
    INDEX 03 00:11:69
    INDEX 04 00:17:03
    INDEX 05 00:24:05
    INDEX 06 00:29:60
    INDEX 07 00:35:10
    INDEX 08 00:41:27
    INDEX 09 00:45:18
    INDEX 10 00:49:25
    INDEX 11 00:53:67
    INDEX 12 00:56:74
FILE "NBA Action (Europe) (Track 17).bin" BINARY
  TRACK 17 AUDIO
    INDEX 00 00:00:00
    INDEX 01 00:02:00
    INDEX 02 00:03:28
    INDEX 03 00:04:26
    INDEX 04 00:06:21
    INDEX 05 00:08:18
    INDEX 06 00:10:27
    INDEX 07 00:12:50
    INDEX 08 00:14:61
    INDEX 09 00:17:13
    INDEX 10 00:18:52
    INDEX 11 00:20:16
    INDEX 12 00:21:63
    INDEX 13 00:23:07
    INDEX 14 00:24:32
    INDEX 15 00:25:62
    INDEX 16 00:27:23
    INDEX 17 00:28:66
    INDEX 18 00:29:67
    INDEX 19 00:31:64
    INDEX 20 00:33:35
    INDEX 21 00:35:23
    INDEX 22 00:36:33
    INDEX 23 00:37:53
    INDEX 24 00:38:54
    INDEX 25 00:39:60
FILE "NBA Action (Europe) (Track 18).bin" BINARY
  TRACK 18 AUDIO
    INDEX 00 00:00:00
    INDEX 01 00:02:00
    INDEX 02 00:03:00
    INDEX 03 00:04:10
    INDEX 04 00:05:48
    INDEX 05 00:06:54
    INDEX 06 00:08:01
    INDEX 07 00:09:45
    INDEX 08 00:10:48
    INDEX 09 00:12:08
    INDEX 10 00:13:64
    INDEX 11 00:15:28
FILE "NBA Action (Europe) (Track 19).bin" BINARY
  TRACK 19 AUDIO
    INDEX 00 00:00:00
    INDEX 01 00:02:00
    INDEX 02 00:02:68
    INDEX 03 00:04:63
    INDEX 04 00:06:03
    INDEX 05 00:07:35
    INDEX 06 00:08:60
FILE "NBA Action (Europe) (Track 20).bin" BINARY
  TRACK 20 AUDIO
    INDEX 00 00:00:00
    INDEX 01 00:02:00
    INDEX 02 00:04:25
    INDEX 03 00:06:47
    INDEX 04 00:09:10
FILE "NBA Action (Europe) (Track 21).bin" BINARY
  TRACK 21 AUDIO
    INDEX 00 00:00:00
    INDEX 01 00:02:00
    INDEX 02 00:02:46
    INDEX 03 00:03:33
    INDEX 04 00:04:24
    INDEX 05 00:05:19
    INDEX 06 00:06:14
    INDEX 07 00:06:71
    INDEX 08 00:07:54
    INDEX 09 00:08:48
    INDEX 10 00:09:45
    INDEX 11 00:11:06
    INDEX 12 00:12:32
    INDEX 13 00:13:45
    INDEX 14 00:14:30
    INDEX 15 00:15:40
    INDEX 16 00:16:49
    INDEX 17 00:17:52
    INDEX 18 00:19:61
    INDEX 19 00:20:69
    INDEX 20 00:22:30
    INDEX 21 00:24:04
    INDEX 22 00:26:31
    INDEX 23 00:27:54
    INDEX 24 00:29:16
    INDEX 25 00:30:39
    INDEX 26 00:31:43
    INDEX 27 00:32:53
FILE "NBA Action (Europe) (Track 22).bin" BINARY
  TRACK 22 AUDIO
    INDEX 00 00:00:00
    INDEX 01 00:02:00
    INDEX 02 00:02:59
    INDEX 03 00:04:20
    INDEX 04 00:05:45
    INDEX 05 00:07:09
    INDEX 06 00:08:22
    INDEX 07 00:09:73
    INDEX 08 00:11:40
    INDEX 09 00:12:58
    INDEX 10 00:13:63
    INDEX 11 00:16:02
FILE "NBA Action (Europe) (Track 23).bin" BINARY
  TRACK 23 AUDIO
    INDEX 00 00:00:00
    INDEX 01 00:02:00
    INDEX 02 00:03:11
    INDEX 03 00:04:21
    INDEX 04 00:04:69
    INDEX 05 00:05:59
    INDEX 06 00:07:10
    INDEX 07 00:07:71
    INDEX 08 00:09:06
    INDEX 09 00:10:44
    INDEX 10 00:12:10
    INDEX 11 00:13:62
    INDEX 12 00:14:72
    INDEX 13 00:16:31
FILE "NBA Action (Europe) (Track 24).bin" BINARY
  TRACK 24 AUDIO
    INDEX 00 00:00:00
    INDEX 01 00:02:00
    INDEX 02 00:02:56
    INDEX 03 00:03:62
    INDEX 04 00:04:72
    INDEX 05 00:06:19
    INDEX 06 00:07:45
    INDEX 07 00:09:02
    INDEX 08 00:10:24
    INDEX 09 00:11:48
    INDEX 10 00:12:52
    INDEX 11 00:13:71
    INDEX 12 00:15:13
    INDEX 13 00:16:40
    INDEX 14 00:18:02
    INDEX 15 00:19:46
    INDEX 16 00:21:19
    INDEX 17 00:22:60
    INDEX 18 00:24:25
    INDEX 19 00:25:71
    INDEX 20 00:27:35
    INDEX 21 00:28:72
    INDEX 22 00:30:16
    INDEX 23 00:31:35
    INDEX 24 00:32:67
    INDEX 25 00:34:33
    INDEX 26 00:35:71
    INDEX 27 00:37:38
    INDEX 28 00:39:02
    INDEX 29 00:40:27
    INDEX 30 00:41:34
    INDEX 31 00:42:63
    INDEX 32 00:44:00
    INDEX 33 00:45:22
    INDEX 34 00:46:50
    INDEX 35 00:48:06
    INDEX 36 00:49:39
    INDEX 37 00:50:69
    INDEX 38 00:52:36
    INDEX 39 00:53:64
    INDEX 40 00:55:14
    INDEX 41 00:56:46
    INDEX 42 00:57:56
    INDEX 43 00:58:67
    INDEX 44 01:00:16
    INDEX 45 01:01:36
    INDEX 46 01:02:63
    INDEX 47 01:04:31
    INDEX 48 01:06:06
    INDEX 49 01:07:39
    INDEX 50 01:08:68
    INDEX 51 01:10:26
    INDEX 52 01:11:42
    INDEX 53 01:13:02
    INDEX 54 01:14:45
    INDEX 55 01:16:05
    INDEX 56 01:17:37
    INDEX 57 01:19:07
    INDEX 58 01:20:57
    INDEX 59 01:22:13
    INDEX 60 01:23:40
    INDEX 61 01:25:03
    INDEX 62 01:26:20
    INDEX 63 01:27:50
    INDEX 64 01:29:11
    INDEX 65 01:30:47
    INDEX 66 01:32:12
    INDEX 67 01:33:52
    INDEX 68 01:35:28
    INDEX 69 01:36:63
    INDEX 70 01:38:10
    INDEX 71 01:39:41
    INDEX 72 01:40:53
    INDEX 73 01:42:00
    INDEX 74 01:43:28
    INDEX 75 01:44:58
    INDEX 76 01:46:17
    INDEX 77 01:47:49
    INDEX 78 01:49:20
    INDEX 79 01:50:56
    INDEX 80 01:51:72
    INDEX 81 01:53:25
    INDEX 82 01:54:28
    INDEX 83 01:55:37
    INDEX 84 01:56:60
    INDEX 85 01:58:03
    INDEX 86 01:59:31
    INDEX 87 02:00:57
    INDEX 88 02:02:20
    INDEX 89 02:03:43
    INDEX 90 02:04:48
    INDEX 91 02:05:63
    INDEX 92 02:07:08
    INDEX 93 02:08:30
    INDEX 94 02:09:59
    INDEX 95 02:11:23
    INDEX 96 02:12:64
    INDEX 97 02:14:39
    INDEX 98 02:16:20
    INDEX 99 02:17:59
FILE "NBA Action (Europe) (Track 25).bin" BINARY
  TRACK 25 AUDIO
    INDEX 00 00:00:00
    INDEX 01 00:02:00
    INDEX 02 00:03:39
    INDEX 03 00:04:59
FILE "NBA Action (Europe) (Track 26).bin" BINARY
  TRACK 26 AUDIO
    INDEX 00 00:00:00
    INDEX 01 00:02:00
    INDEX 02 00:02:73
    INDEX 03 00:04:04
    INDEX 04 00:05:16
    INDEX 05 00:06:37
    INDEX 06 00:07:52
    INDEX 07 00:08:67
    INDEX 08 00:10:05
    INDEX 09 00:11:13
    INDEX 10 00:12:09
    INDEX 11 00:13:26
    INDEX 12 00:14:34
    INDEX 13 00:15:47
    INDEX 14 00:16:34
    INDEX 15 00:17:27
    INDEX 16 00:18:30
    INDEX 17 00:19:36
    INDEX 18 00:20:41
    INDEX 19 00:21:55
    INDEX 20 00:22:63
    INDEX 21 00:23:63
    INDEX 22 00:24:49
    INDEX 23 00:25:60
    INDEX 24 00:26:59
    INDEX 25 00:27:74
    INDEX 26 00:28:67
    INDEX 27 00:29:68
    INDEX 28 00:31:20
    INDEX 29 00:32:46
    INDEX 30 00:33:68
    INDEX 31 00:35:18
    INDEX 32 00:36:46
    INDEX 33 00:37:70
    INDEX 34 00:39:18
    INDEX 35 00:40:34
    INDEX 36 00:41:54
    INDEX 37 00:43:19
FILE "NBA Action (Europe) (Track 27).bin" BINARY
  TRACK 27 AUDIO
    INDEX 00 00:00:00
    INDEX 01 00:02:00
    INDEX 02 00:06:04
    INDEX 03 00:06:41
    INDEX 04 00:10:52
    INDEX 05 00:12:68
FILE "NBA Action (Europe) (Track 28).bin" BINARY
  TRACK 28 AUDIO
    INDEX 00 00:00:00
    INDEX 01 00:02:00
    INDEX 02 00:03:08
    INDEX 03 00:04:25
    INDEX 04 00:05:37
FILE "NBA Action (Europe) (Track 29).bin" BINARY
  TRACK 29 AUDIO
    INDEX 00 00:00:00
    INDEX 01 00:02:00
    INDEX 02 00:03:17
    INDEX 03 00:04:45
    INDEX 04 00:05:65
    INDEX 05 00:07:13
    INDEX 06 00:08:60
    INDEX 07 00:10:14
    INDEX 08 00:11:45
    INDEX 09 00:13:06
    INDEX 10 00:14:70
    INDEX 11 00:16:26
    INDEX 12 00:17:63
    INDEX 13 00:19:13
    INDEX 14 00:20:28
    INDEX 15 00:21:19
    INDEX 16 00:22:40
    INDEX 17 00:24:35
    INDEX 18 00:25:69
    INDEX 19 00:27:19
    INDEX 20 00:28:61
    INDEX 21 00:31:07
    INDEX 22 00:32:39
    INDEX 23 00:34:33
    INDEX 24 00:36:02
    INDEX 25 00:38:04
    INDEX 26 00:39:67
    INDEX 27 00:41:32
    INDEX 28 00:42:72
    INDEX 29 00:44:47
    INDEX 30 00:46:00
    INDEX 31 00:47:48
    INDEX 32 00:49:21
    INDEX 33 00:51:12
FILE "NBA Action (Europe) (Track 30).bin" BINARY
  TRACK 30 AUDIO
    INDEX 00 00:00:00
    INDEX 01 00:02:00
    INDEX 02 00:02:71
    INDEX 03 00:03:59
    INDEX 04 00:04:44
    INDEX 05 00:05:33
    INDEX 06 00:06:47
    INDEX 07 00:07:38
    INDEX 08 00:08:24
    INDEX 09 00:09:24
    INDEX 10 00:10:29
    INDEX 11 00:11:17
    INDEX 12 00:12:16
    INDEX 13 00:13:18
    INDEX 14 00:14:14
    INDEX 15 00:14:58
    INDEX 16 00:15:40
    INDEX 17 00:16:48
    INDEX 18 00:17:30
    INDEX 19 00:18:13
    INDEX 20 00:18:70
    INDEX 21 00:20:34
    INDEX 22 00:21:42
    INDEX 23 00:22:66
    INDEX 24 00:23:69
    INDEX 25 00:25:01
    INDEX 26 00:26:00
    INDEX 27 00:27:11
    INDEX 28 00:28:12
    INDEX 29 00:29:17
    INDEX 30 00:30:02
    INDEX 31 00:32:15
    INDEX 32 00:34:35
    INDEX 33 00:36:26
FILE "NBA Action (Europe) (Track 31).bin" BINARY
  TRACK 31 AUDIO
    INDEX 00 00:00:00
    INDEX 01 00:02:00
    INDEX 02 00:02:68
    INDEX 03 00:04:25
    INDEX 04 00:05:05
    INDEX 05 00:06:58
    INDEX 06 00:07:55
    INDEX 07 00:09:12
    INDEX 08 00:10:10
    INDEX 09 00:12:48
    INDEX 10 00:14:20
    INDEX 11 00:16:15
    INDEX 12 00:17:42
    INDEX 13 00:19:37
    INDEX 14 00:21:37
    INDEX 15 00:22:56
    INDEX 16 00:23:69
    INDEX 17 00:25:53
    INDEX 18 00:27:06
    INDEX 19 00:28:18
    INDEX 20 00:29:21
    INDEX 21 00:30:42
    INDEX 22 00:31:37
    INDEX 23 00:32:66
FILE "NBA Action (Europe) (Track 32).bin" BINARY
  TRACK 32 AUDIO
    INDEX 00 00:00:00
    INDEX 01 00:02:00
    INDEX 02 00:03:24
    INDEX 03 00:04:24
    INDEX 04 00:05:55
    INDEX 05 00:07:01
    INDEX 06 00:08:61
    INDEX 07 00:10:18
    INDEX 08 00:11:24
    INDEX 09 00:12:09
FILE "NBA Action (Europe) (Track 33).bin" BINARY
  TRACK 33 AUDIO
    INDEX 00 00:00:00
    INDEX 01 00:02:00
    INDEX 02 00:03:07
    INDEX 03 00:04:43
    INDEX 04 00:05:54
    INDEX 05 00:06:62
    INDEX 06 00:08:62
    INDEX 07 00:10:53
    INDEX 08 00:12:06
    INDEX 09 00:14:25
    INDEX 10 00:16:14
    INDEX 11 00:17:48
    INDEX 12 00:20:12
    INDEX 13 00:21:51
    INDEX 14 00:23:66
    INDEX 15 00:26:09
    INDEX 16 00:27:61
    INDEX 17 00:29:69
    INDEX 18 00:31:17
    INDEX 19 00:32:23
    INDEX 20 00:34:11
    INDEX 21 00:35:06
    INDEX 22 00:36:32
    INDEX 23 00:38:05
    INDEX 24 00:39:40
    INDEX 25 00:40:62
    INDEX 26 00:42:43
    INDEX 27 00:43:71
    INDEX 28 00:45:72
    INDEX 29 00:48:25
    INDEX 30 00:49:69
FILE "NBA Action (Europe) (Track 34).bin" BINARY
  TRACK 34 AUDIO
    INDEX 00 00:00:00
    INDEX 01 00:02:00
    INDEX 02 00:02:69
    INDEX 03 00:04:25
    INDEX 04 00:05:28
    INDEX 05 00:06:48
    INDEX 06 00:07:65
    INDEX 07 00:08:51
    INDEX 08 00:09:47
    INDEX 09 00:10:60
    INDEX 10 00:12:21
    INDEX 11 00:13:46
    INDEX 12 00:14:73
FILE "NBA Action (Europe) (Track 35).bin" BINARY
  TRACK 35 AUDIO
    INDEX 00 00:00:00
    INDEX 01 00:02:00
    INDEX 02 00:06:21
    INDEX 03 00:10:70
    INDEX 04 00:16:63
    INDEX 05 00:21:49
    INDEX 06 00:27:39
    INDEX 07 00:33:20
    INDEX 08 00:38:70
    INDEX 09 00:44:25
    INDEX 10 00:50:21
    INDEX 11 00:55:07
    INDEX 12 01:00:19
    INDEX 13 01:06:26
    INDEX 14 01:10:47
    INDEX 15 01:15:06
    INDEX 16 01:19:72
    INDEX 17 01:25:20
    INDEX 18 01:31:39
    INDEX 19 01:36:14
    INDEX 20 01:41:32
    INDEX 21 01:46:49
    INDEX 22 01:51:18
    INDEX 23 01:55:70
    INDEX 24 02:01:08
    INDEX 25 02:07:27
    INDEX 26 02:12:19
    INDEX 27 02:18:27
    INDEX 28 02:24:07
    INDEX 29 02:29:28
    INDEX 30 02:34:07
    INDEX 31 02:41:04
    INDEX 32 02:47:39
    INDEX 33 02:52:38
    INDEX 34 02:58:05
    INDEX 35 03:04:17
    INDEX 36 03:06:04
    INDEX 37 03:08:17
    INDEX 38 03:10:12
    INDEX 39 03:12:21
    INDEX 40 03:14:52
    INDEX 41 03:16:48
    INDEX 42 03:18:54
    INDEX 43 03:20:50
    INDEX 44 03:23:23
    INDEX 45 03:25:33
    INDEX 46 03:27:57
    INDEX 47 03:29:68
    INDEX 48 03:31:69
    INDEX 49 03:33:20
    INDEX 50 03:35:14
    INDEX 51 03:37:65
    INDEX 52 03:39:68
    INDEX 53 03:41:66
    INDEX 54 03:43:46
    INDEX 55 03:46:27
    INDEX 56 03:48:29
    INDEX 57 03:50:68
    INDEX 58 03:53:08
    INDEX 59 03:55:66
    INDEX 60 03:58:16
    INDEX 61 04:00:40
    INDEX 62 04:02:58
    INDEX 63 04:05:04
    INDEX 64 04:06:74
    INDEX 65 04:10:07
    INDEX 66 04:13:20
    INDEX 67 04:15:63
    INDEX 68 04:18:68
    INDEX 69 04:20:39
    INDEX 70 04:22:40
    INDEX 71 04:24:34
    INDEX 72 04:26:20
    INDEX 73 04:28:17
    INDEX 74 04:30:13
    INDEX 75 04:31:68
    INDEX 76 04:34:20
    INDEX 77 04:36:30
FILE "NBA Action (Europe) (Track 36).bin" BINARY
  TRACK 36 AUDIO
    INDEX 00 00:00:00
    INDEX 01 00:02:00
    INDEX 02 00:02:50
    INDEX 03 00:04:19
    INDEX 04 00:05:55
    INDEX 05 00:06:62
    INDEX 06 00:08:31
    INDEX 07 00:10:34
    INDEX 08 00:12:69
    INDEX 09 00:15:14
    INDEX 10 00:17:62
    INDEX 11 00:20:22
    INDEX 12 00:21:17
    INDEX 13 00:22:60
    INDEX 14 00:24:59
    INDEX 15 00:25:33
    INDEX 16 00:27:11
    INDEX 17 00:28:70
    INDEX 18 00:30:28
    INDEX 19 00:31:50
    INDEX 20 00:33:05
    INDEX 21 00:34:50
    INDEX 22 00:35:55
    INDEX 23 00:37:08
    INDEX 24 00:38:64
    INDEX 25 00:40:17
    INDEX 26 00:41:74
    INDEX 27 00:43:32
    INDEX 28 00:44:44
    INDEX 29 00:45:27
    INDEX 30 00:47:24
FILE "NBA Action (Europe) (Track 37).bin" BINARY
  TRACK 37 AUDIO
    INDEX 00 00:00:00
    INDEX 01 00:02:00
    INDEX 02 00:10:70
    INDEX 03 00:20:31
    INDEX 04 00:29:61
    INDEX 05 00:38:55
    INDEX 06 00:47:57
    INDEX 07 00:56:60
    INDEX 08 01:06:07
    INDEX 09 01:14:74
    INDEX 10 01:24:50
    INDEX 11 01:33:58
    INDEX 12 01:41:20
    INDEX 13 01:53:65
    INDEX 14 01:55:59
    INDEX 15 02:08:47
    INDEX 16 02:16:45
    INDEX 17 02:25:31
    INDEX 18 02:34:54
    INDEX 19 02:44:00
    INDEX 20 02:52:49
    INDEX 21 03:03:35
    INDEX 22 03:10:62
    INDEX 23 03:19:73
FILE "NBA Action (Europe) (Track 38).bin" BINARY
  TRACK 38 AUDIO
    INDEX 00 00:00:00
    INDEX 01 00:02:00
